<svg xmlns="http://www.w3.org/2000/svg" viewBox="31.35 7.1 38.15 64.45" xmlns:v="https://vecta.io/nano"><style><![CDATA[.B{fill-rule:evenodd}]]></style><path d="M56.034 19.656c.391.177 2.022.654 2.942 1.044 2.663 1.13 5.301 2.717 6.501 5.474 1.845 4.239-.61 9.298-2.199 12.436l1.103-1.196c.367-.421.697-.869 1.043-1.31a20.89 20.89 0 0 0 1.866-2.898c2.272-4.329 2.007-6.765 2.209-7.262V24.09l-.26-1.928c-.503-2.919-2.106-5.966-4.046-8.092-.627-.686-.973-1.051-1.683-1.696-2.819-2.56-7.614-5.089-12.543-5.248.119.208.351.395.521.577 1.659 1.765 2.973 3.741 3.732 6.152.725 2.307.688 3.334.816 5.801m-24.684 5.036v2.073c.075.178.207 1.543.281 1.915a15.64 15.64 0 0 0 .461 1.792c1.132 3.443 2.772 5.686 5.268 8.102 1.499 1.451 3.452 2.611 5.39 3.52 1.839.862 5.43 1.707 7.448 1.38-.775.001-.519.06-1.505-.976-2.054-2.158-3.743-5.205-4.277-8.163-.297-1.649-.306-2.886-.323-4.682l-.032 1.331c-1.279-.198-4.244-1.63-5.391-2.372-4.101-2.654-4.877-6.259-3.65-10.831a24.92 24.92 0 0 1 1.635-4.197c.187-.361.509-.953.622-1.287-.467.344-1.665 1.888-2.08 2.443a20.72 20.72 0 0 0-3.132 6.087c-.599 1.902-.617 3.514-.714 3.867" fill="#00adef" class="B"/><path d="M44.094 29.653c.017 1.796.026 3.032.323 4.682.534 2.958 2.223 6.005 4.277 8.163.985 1.036.729.977 1.505.976l1.178-.017-.69-.748c-.506-.457-1.532-1.857-1.892-2.457-4.838-8.057.808-16.342-2.157-25.392-.417-1.274-1.223-2.734-2.018-3.82-.218-.298-.419-.513-.633-.799-.14-.186-1.248-1.454-1.429-1.471-.094-.009-.368.141-.482.199l-.516.284.787.784c.243.219.555.595.742.845 1.585 2.116 2.293 4.412 2.197 7.281-.067 1.997-.301 3.794-.585 5.723-.256 1.738-.62 3.998-.607 5.768m11.94-9.998c-.128-2.467-.09-3.494-.816-5.801-.758-2.411-2.072-4.387-3.732-6.152-.171-.182-.402-.369-.521-.577l-.004-.025h-.274l-1.279.039c.081.149.547.545.711.702 4.703 4.517 3.264 11.234 3.043 17.18-.216 5.814.792 9.808 4.06 14.069l2.051 2.207c.331-.215.697-.398.988-.62-.128-.156-.261-.257-.399-.388-.158-.15-.234-.262-.398-.418-.345-.328-1.199-1.425-1.463-1.815-3.319-4.898-2.542-9.649-2.125-15.237.077-1.04.071-2.135.159-3.165" fill="#231f20" class="B"/><path d="M39.493 52.677c.118 2.572.651 3.013 3.075 3.019 1.015.003.555-.773.533-.796-.231-.24-1.003-.094-1.395-.138-.999-.113-1.022-1.302-.991-2.085.861-.06 1.576-.251 1.913-.813.471-.786.191-1.404-.078-2.161l6.134-.015-.007 1.13c-1.052.041-.956.363-1.452.567-.761-.836-2.802-1.121-3.666.232-.835 1.308-.041 2.836 1.129 3.59.375.241 1.598 1.039 1.759.162.091-.494-.211-.615-.539-.766-2.21-1.013-1.572-2.868-.373-2.847.457.008.747.188 1.053.337-.113.395-.518.57-.401 1.16.075.374.495.695.902.304.455-.439.569-1.437 1.593-1.611l.003 2.784c-.454.001-.999.16-.703.715.174.326.846.234 1.292.234.411 0 1.122.09 1.323-.201.131-.19.084-.478-.046-.605-.155-.151-.379-.141-.628-.144v-5.04l4.366-.007c.002.331.047.697-.054.991-.337.195-1.433.044-1.929.118-1.605.241-2.048 2.556-.579 3.929 1.782 1.667 5.121.201 4.592-.956-.157-.343-.419-.309-.817-.275-.071.036-.684 1.234-2.103.993-1.722-.294-1.615-2.529-.734-2.777.817-.23 2.587.325 2.758-.401.066-.28.023-1.267.023-1.618l6.846.011-.003 1.128c-.881-.006-.949.27-1.445.571-.605-.442-1.029-.735-1.946-.711-.844.022-1.446.469-1.755.949-.845 1.312-.017 2.868 1.18 3.608.235.146.601.373.859.472.431.165.834-.01.864-.432.049-.696-.59-.474-1.46-1.273-1.016-.933-.54-2.294.621-2.244.262.011.671.127.869.29l.105.103c-.185.315-.508.593-.407 1.116.043.221.186.356.35.421.888.351.805-1.512 2.16-1.751l.007 2.79c-.457-.002-.965.135-.715.684.177.387.895.263 1.315.263.361 0 1.134.105 1.327-.198.12-.189.065-.487-.051-.605-.178-.181-.385-.119-.646-.171l.007-4.994c.341-.072.934.045 1.214-.056.306-.111.418-.583.128-.811-.249-.196-1.999-.097-2.44-.097l-23.195.034c-.328 0-.966-.069-1.153.124-.273.281-.083.755.282.794.697.074 1.819-.006 2.565-.002.355.002.508.153.682.598.149.379.075.768-.139 1.027-.226.275-.478.309-.956.323-1.071.03-2.022-.222-1.932.603.053.483.444.414.907.428" fill="#262423" class="B"/><g fill="#231f20" class="B"><path d="M38.622 58.715c.742-.007 1.629-.083 1.589.767-.038.816-.846.697-1.587.722l-.002-1.336zm.01 2.492a2.27 2.27 0 0 1 .284.336l.809 1.034c.308.361.756 1.13 1.264 1.196.378.049 1.204-.332.428-1.349-.152-.199-1.016-1.219-1.181-1.319.104-.119-.011-.02.11-.092.056-.033.045-.027.116-.054.231-.087.352-.076.619-.299a1.57 1.57 0 0 0 .516-.716c.117-.335.127-.729.045-1.078-.238-1.023-1.192-1.467-2.3-1.483-.68-.009-1.827-.182-2.069.442-.154.395-.097 4.216-.083 4.937.027 1.435 1.075 1.029 1.247.784.307-.435.159-1.718.196-2.339m5.263-.039c.06-.301.654-2.138.787-2.302l.699 2.307zm-.409 1.351l2.304-.015c.185.377.151.746.434 1.051.293.315.787.298 1.056-.023.374-.447-.278-1.806-.451-2.322l-.778-2.243c-.26-.769-.421-1.724-1.336-1.737-.899-.013-1.105.896-1.37 1.651l-.817 2.254c-.189.532-.825 1.86-.519 2.335.192.298.687.475 1.015.109.269-.299.273-.703.463-1.06m16.334-.179l-.002-1.32c.655-.002 2.048.199 2.049-.667.001-.873-1.337-.665-2.049-.667l-.001-.971c.67-.001 1.915.147 2.154-.411a.59.59 0 0 0-.355-.824c-.34-.132-.834-.095-1.234-.095-2.32 0-1.997-.137-1.997 3.174l.029 2.536c.075.408.251.529.692.574.391.041.921.011 1.327.011.679.001 1.947.06 1.587-.92-.221-.604-1.505-.373-2.201-.419"/><path d="M55.057 58.715l.015 4.293c.048.457.225.772.704.774.949.003.716-1.416.716-2.149l.002-2.916c.375-.005.853.027 1.172-.107.283-.118.481-.487.295-.851-.291-.57-1.53-.375-2.186-.375-.623 0-1.935-.156-2.19.372-.178.368.013.739.299.856.317.129.801.101 1.172.104m-3.018 3.624c.02-.835.138-4.401-.191-4.869-.185-.263-1.209-.64-1.243.781l.068 5.004c.202.627 1.478.422 2.134.423.377.001.787.027 1.116-.109.297-.123.49-.472.302-.842-.302-.592-1.518-.341-2.185-.389m12.236.009v-2.507c0-.605.103-1.955-.19-2.37-.199-.283-1.216-.615-1.244.781l.066 5.004c.213.631 1.479.423 2.136.424.381 0 .783.03 1.121-.105.315-.125.467-.503.299-.854-.249-.525-1.58-.372-2.189-.373m-15.771-5.079c-.578.177-.51.824-.51 1.497v3.996c.015.616.22 1.18.937.989.272-.073.378-.248.446-.531.089-.368.064-4.367.049-4.968-.015-.618-.225-1.196-.922-.983"/></g><path d="M54.357 48.399l.924-.002c-.159-1.198-1.624-3.268-2.629-3.22-.426.02-1.013.672.044 1.154.158.072.349.21.469.3.281.214.561.489.745.738.323.435.248.63.447 1.03" fill="#262423" class="B"/><path d="M41.087 48.415l.955.008c-.24-1.255-1.601-3.29-2.647-3.222-.408.027-.687.49-.403.855.113.145.718.447.905.582.57.415 1.032.884 1.191 1.777" fill="#262424" class="B"/></svg>